<svg width="27" height="22" viewBox="0 0 27 22" fill="none" xmlns="http://www.w3.org/2000/svg">
<path d="M0 1.40625C0 0.644531 0.585938 0 1.40625 0H24.8438C25.6055 0 26.25 0.644531 26.25 1.40625C26.25 2.22656 25.6055 2.8125 24.8438 2.8125H1.40625C0.585938 2.8125 0 2.22656 0 1.40625ZM0 10.7812C0 10.0195 0.585938 9.375 1.40625 9.375H24.8438C25.6055 9.375 26.25 10.0195 26.25 10.7812C26.25 11.6016 25.6055 12.1875 24.8438 12.1875H1.40625C0.585938 12.1875 0 11.6016 0 10.7812ZM24.8438 21.5625H1.40625C0.585938 21.5625 0 20.9766 0 20.1562C0 19.3945 0.585938 18.75 1.40625 18.75H24.8438C25.6055 18.75 26.25 19.3945 26.25 20.1562C26.25 20.9766 25.6055 21.5625 24.8438 21.5625Z" fill="white"/>
</svg>
