<svg width="128" height="34" viewBox="0 0 128 34" fill="none" xmlns="http://www.w3.org/2000/svg">
<g clip-path="url(#clip0_1_5)">
<path d="M0 0H3.12542V14.7333H21.8779V0H25.0033V33.4333H21.8779V17.5667H3.12542V33.4333H0V0Z" fill="white"/>
<path d="M32.1539 22.525C32.1539 20.8565 32.438 19.3218 33.0063 17.9208C33.5745 16.5199 34.3638 15.3079 35.374 14.2847C36.3843 13.2616 37.5997 12.4667 39.0203 11.9C40.441 11.3333 41.9879 11.05 43.6611 11.05C45.3343 11.05 46.8733 11.3333 48.2782 11.9C49.6831 12.4667 50.8985 13.2616 51.9245 14.2847C52.9505 15.3079 53.7477 16.5199 54.3159 17.9208C54.8842 19.3218 55.1683 20.8565 55.1683 22.525C55.1683 24.1935 54.8842 25.7282 54.3159 27.1292C53.7477 28.5301 52.9505 29.7421 51.9245 30.7653C50.8985 31.7884 49.6831 32.5833 48.2782 33.15C46.8733 33.7167 45.3343 34 43.6611 34C41.9879 34 40.441 33.7167 39.0203 33.15C37.5997 32.5833 36.3843 31.7884 35.374 30.7653C34.3638 29.7421 33.5745 28.5301 33.0063 27.1292C32.438 25.7282 32.1539 24.1935 32.1539 22.525ZM34.9952 22.525C34.9952 23.7528 35.1925 24.9097 35.5871 25.9958C35.9817 27.0819 36.5579 28.0264 37.3156 28.8292C38.0732 29.6319 38.9888 30.2694 40.0621 30.7417C41.1355 31.2139 42.3352 31.45 43.6611 31.45C44.987 31.45 46.1867 31.2139 47.2601 30.7417C48.3335 30.2694 49.249 29.6319 50.0067 28.8292C50.7643 28.0264 51.3405 27.0819 51.7351 25.9958C52.1297 24.9097 52.327 23.7528 52.327 22.525C52.327 21.2972 52.1297 20.1403 51.7351 19.0542C51.3405 17.9681 50.7643 17.0236 50.0067 16.2208C49.249 15.4181 48.3335 14.7806 47.2601 14.3083C46.1867 13.8361 44.987 13.6 43.6611 13.6C42.3352 13.6 41.1355 13.8361 40.0621 14.3083C38.9888 14.7806 38.0732 15.4181 37.3156 16.2208C36.5579 17.0236 35.9817 17.9681 35.5871 19.0542C35.1925 20.1403 34.9952 21.2972 34.9952 22.525Z" fill="white"/>
<path d="M80.0296 27.2944C80.0296 27.7037 80.0454 28.1995 80.077 28.7819C80.1085 29.3644 80.1322 29.9546 80.148 30.5528C80.1638 31.1509 80.1874 31.7097 80.219 32.2292C80.2506 32.7486 80.2664 33.15 80.2664 33.4333H77.4251C77.3935 32.6148 77.3698 31.8278 77.3541 31.0722C77.3383 30.3167 77.2988 29.8287 77.2357 29.6083H77.0936C76.5253 30.8046 75.5782 31.8356 74.2523 32.7014C72.9264 33.5671 71.3795 34 69.6115 34C67.8436 34 66.5098 33.7324 65.4206 33.1972C64.3315 32.662 63.4791 31.9616 62.8635 31.0958C62.2479 30.2301 61.8296 29.2306 61.6086 28.0972C61.3876 26.9639 61.2771 25.7991 61.2771 24.6028V11.6167H64.1184V24.4611C64.1184 25.3426 64.1973 26.2005 64.3552 27.0347C64.513 27.869 64.7892 28.6167 65.1839 29.2778C65.5785 29.9389 66.131 30.4662 66.8413 30.8597C67.5516 31.2532 68.475 31.45 69.6115 31.45C70.6533 31.45 71.6399 31.269 72.5712 30.9069C73.5025 30.5449 74.3076 29.994 74.9863 29.2542C75.6651 28.5144 76.2018 27.5857 76.5964 26.4681C76.991 25.3505 77.1883 24.0361 77.1883 22.525V11.6167H80.0296V27.2944Z" fill="white"/>
<path d="M87.8905 27.8611C88.4903 29.0259 89.3743 29.9153 90.5424 30.5292C91.7104 31.1431 92.9417 31.45 94.236 31.45C94.8359 31.45 95.4357 31.3556 96.0355 31.1667C96.6353 30.9778 97.172 30.7102 97.6456 30.3639C98.1191 30.0176 98.5059 29.6005 98.8058 29.1125C99.1057 28.6245 99.2556 28.0657 99.2556 27.4361C99.2556 26.4287 98.9321 25.6731 98.2849 25.1694C97.6377 24.6657 96.8406 24.2722 95.8935 23.9889C94.9464 23.7056 93.9046 23.4616 92.768 23.2569C91.6315 23.0523 90.5897 22.7375 89.6426 22.3125C88.6955 21.8875 87.8984 21.2972 87.2512 20.5417C86.604 19.7861 86.2804 18.7157 86.2804 17.3306C86.2804 16.2602 86.5014 15.3315 86.9434 14.5444C87.3854 13.7574 87.9615 13.1042 88.6718 12.5847C89.3822 12.0653 90.1793 11.6796 91.0633 11.4278C91.9472 11.1759 92.847 11.05 93.7625 11.05C95.562 11.05 97.1168 11.3806 98.4269 12.0417C99.7371 12.7028 100.755 13.7417 101.481 15.1583L98.9242 16.6694C98.3875 15.662 97.7166 14.8986 96.9116 14.3792C96.1066 13.8597 95.0569 13.6 93.7625 13.6C93.2574 13.6 92.7286 13.6787 92.1761 13.8361C91.6236 13.9935 91.1264 14.2139 90.6844 14.4972C90.2425 14.7806 89.8715 15.1426 89.5716 15.5833C89.2717 16.0241 89.1217 16.5278 89.1217 17.0944C89.1217 18.0704 89.4453 18.7944 90.0925 19.2667C90.7397 19.7389 91.5368 20.1088 92.4839 20.3764C93.431 20.644 94.4728 20.8722 95.6093 21.0611C96.7458 21.25 97.7876 21.5569 98.7347 21.9819C99.6818 22.4069 100.479 23.0208 101.126 23.8236C101.773 24.6264 102.097 25.7676 102.097 27.2472C102.097 28.3806 101.884 29.3643 101.458 30.1986C101.031 31.0329 100.447 31.7333 99.7055 32.3C98.9636 32.8667 98.1191 33.2917 97.172 33.575C96.2249 33.8583 95.2305 34 94.1887 34C92.2945 34 90.566 33.638 89.0033 32.9139C87.4406 32.1898 86.2331 31.0722 85.3807 29.5611L87.8905 27.8611Z" fill="white"/>
<path d="M127.337 29.325C126.232 30.9935 124.867 32.1898 123.241 32.9139C121.615 33.638 119.823 34 117.866 34C116.193 34 114.678 33.7167 113.32 33.15C111.963 32.5833 110.794 31.7884 109.816 30.7653C108.837 29.7421 108.087 28.5301 107.566 27.1292C107.046 25.7282 106.785 24.1778 106.785 22.4778C106.785 20.7778 107.053 19.3296 107.59 17.9444C108.127 16.5593 108.884 15.3551 109.863 14.3319C110.842 13.3088 111.994 12.506 113.32 11.9236C114.646 11.3412 116.114 11.05 117.724 11.05C119.334 11.05 120.873 11.3412 122.152 11.9236C123.43 12.506 124.504 13.2773 125.372 14.2375C126.24 15.1977 126.895 16.2917 127.337 17.5194C127.779 18.7472 128 19.9907 128 21.25V23.2333H109.626C109.626 23.8315 109.745 24.5949 109.982 25.5236C110.218 26.4523 110.652 27.3574 111.284 28.2389C111.915 29.1204 112.76 29.8759 113.817 30.5056C114.875 31.1352 116.24 31.45 117.913 31.45C119.366 31.45 120.771 31.1037 122.128 30.4111C123.486 29.7185 124.527 28.7741 125.253 27.5778L127.337 29.325ZM125.159 20.6833C125.159 19.7074 124.961 18.7944 124.567 17.9444C124.172 17.0944 123.635 16.3468 122.957 15.7014C122.278 15.056 121.473 14.5444 120.542 14.1667C119.61 13.7889 118.624 13.6 117.582 13.6C116.035 13.6 114.749 13.9148 113.723 14.5444C112.697 15.1741 111.884 15.8981 111.284 16.7167C110.684 17.5352 110.258 18.3301 110.005 19.1014C109.753 19.8727 109.626 20.4 109.626 20.6833H125.159Z" fill="white"/>
</g>
<defs>
<clipPath id="clip0_1_5">
<rect width="128" height="34" fill="white"/>
</clipPath>
</defs>
</svg>
